HIERARCHY
ROOT Joint1
{
	OFFSET 0.000000 0.000000 0.000000
	CHANNELS 6 Xposition Yposition Zposition Xrotation Yrotation Zrotation
	JOINT Joint2
	{
		OFFSET -0.000000 0.000000 1.456275
		CHANNELS 6 Xposition Yposition Zposition Xrotation Yrotation Zrotation
		JOINT Joint3
		{
			OFFSET -0.000000 0.000002 1.471446
			CHANNELS 6 Xposition Yposition Zposition Xrotation Yrotation Zrotation
			JOINT Joint4
			{
				OFFSET 0.625745 0.000000 0.917755
				CHANNELS 6 Xposition Yposition Zposition Xrotation Yrotation Zrotation
				JOINT Joint5
				{
					OFFSET -0.629534 0.000001 0.940221
					CHANNELS 6 Xposition Yposition Zposition Xrotation Yrotation Zrotation
					JOINT Joint6
					{
						OFFSET -0.000001 0.113772 1.960660
						CHANNELS 6 Xposition Yposition Zposition Xrotation Yrotation Zrotation
						JOINT Joint7
						{
							OFFSET -0.669733 -0.113771 0.388340
							CHANNELS 6 Xposition Yposition Zposition Xrotation Yrotation Zrotation
							End Site
							{
								OFFSET 0.005509 0.005509 0.438980
							}
						}
					}
				}
			}
		}
	}
}
MOTION
Frames: 27
Frame Time: 0.041667
0.000000 0.000000 0.000000 -0.000000 1.019410 -24.563114 -0.000000 0.000000 1.456275 -0.000002 -61.963497 0.000002 -0.000000 0.000002 1.471446 -0.000003 -1.133457 21.311870 0.625745 0.000000 0.917755 -0.000004 80.225797 0.000006 -0.629534 0.000001 0.940221 0.000001 1.709738 -30.331210 -0.000001 0.113772 1.960660 -88.303868 102.381401 0.000005 -0.669733 -0.113771 0.388341 0.081047 3.194584 84.362897 
0.000000 0.000000 0.000000 -0.000000 1.019410 -23.840757 -0.000000 0.000000 1.456275 -0.000003 -61.463889 -0.000002 -0.000000 0.000002 1.471446 -0.000001 -1.133458 20.684248 0.625745 0.000000 0.917755 -0.000004 81.837360 0.000004 -0.629534 0.000001 0.940221 0.000002 1.709739 -29.439659 -0.000001 0.113772 1.960661 -88.303868 102.016457 0.000015 -0.669733 -0.113772 0.388340 0.064019 3.214769 85.850929 
0.000000 0.000000 0.000000 -0.000000 1.019410 -23.118396 -0.000000 0.000000 1.456275 -0.000001 -60.964274 -0.000001 -0.000000 0.000002 1.471446 -0.000000 -1.133458 20.056620 0.625745 0.000000 0.917755 -0.000032 83.448922 0.000001 -0.629534 0.000001 0.940221 0.000002 1.709737 -28.548111 -0.000001 0.113772 1.960660 -88.303868 101.651486 0.000022 -0.669733 -0.113771 0.388340 0.046471 3.234504 87.339002 
0.000000 0.000000 0.000000 -0.000000 1.019410 -22.396043 -0.000000 -0.000000 1.456275 0.000000 -60.464666 0.000002 -0.000000 0.000002 1.471446 0.000000 -1.133457 19.428996 0.625745 0.000000 0.917754 -0.000042 85.060478 0.000016 -0.629534 0.000001 0.940221 0.000002 1.709733 -27.656563 -0.000000 0.113772 1.960661 -88.303862 101.286528 0.000010 -0.669734 -0.113771 0.388341 0.028413 3.253786 88.827102 
0.000000 0.000000 0.000000 -0.000000 1.019410 -21.673703 -0.000000 -0.000000 1.456275 0.000001 -59.965072 -0.000001 -0.000001 0.000002 1.471446 -0.000004 -1.133457 18.801388 0.625745 0.000000 0.917755 -0.000033 86.672000 0.000002 -0.629534 0.000001 0.940221 0.000000 1.709739 -26.765044 -0.000001 0.113772 1.960660 -88.303862 100.921577 0.000006 -0.669733 -0.113771 0.388339 0.009865 3.272582 90.315202 
0.000000 0.000000 0.000000 -0.000000 1.019410 -20.951392 -0.000000 0.000000 1.456275 -0.000001 -59.465492 0.000001 -0.000000 0.000002 1.471446 -0.000002 -1.133456 18.173803 0.625744 0.000000 0.917755 -0.000035 88.283453 0.000018 -0.629534 0.000001 0.940221 0.000001 1.709734 -25.873551 -0.000001 0.113772 1.960660 -88.303848 100.556647 0.000013 -0.669733 -0.113771 0.388340 -0.009170 3.290895 91.803295 
0.000000 0.000000 0.000000 -0.000000 1.019410 -20.229057 -0.000000 0.000000 1.456275 -0.000001 -58.965897 -0.000003 -0.000000 0.000002 1.471446 0.000001 -1.133456 17.546194 0.625745 0.000000 0.917755 -0.001267 89.894961 0.000298 -0.629534 0.000001 0.940221 0.000002 1.709733 -24.982040 -0.000001 0.113772 1.960661 -88.303855 100.191697 0.000004 -0.669733 -0.113772 0.388341 -0.028675 3.308708 93.291450 
0.000000 0.000000 0.000000 -0.000000 1.019410 -19.506651 -0.000000 0.000000 1.456275 -0.000001 -58.466255 0.000000 -0.000001 0.000002 1.471446 0.000002 -1.133463 16.918529 0.625745 0.000000 0.917755 0.000088 91.506626 -0.000053 -0.629533 0.000001 0.940221 0.000001 1.709736 -24.090419 -0.000001 0.113772 1.960660 -88.303862 99.826712 0.000015 -0.669733 -0.113772 0.388340 -0.048638 3.326015 94.779789 
0.000000 0.000000 0.000000 -0.000000 1.019410 -18.784157 -0.000000 0.000000 1.456275 -0.000001 -57.966552 0.000001 -0.000001 0.000002 1.471446 -0.000001 -1.133460 16.290785 0.625744 0.000000 0.917755 0.000019 93.118489 -0.000010 -0.629533 0.000001 0.940220 0.000001 1.709735 -23.198705 -0.000001 0.113773 1.960660 -88.303855 99.461686 0.000022 -0.669733 -0.113771 0.388340 -0.069048 3.342795 96.268347 
0.000000 0.000000 0.000000 -0.000000 1.019410 -18.061737 -0.000000 0.000000 1.456275 -0.000002 -57.466903 0.000001 -0.000000 0.000002 1.471446 -0.000001 -1.133458 15.663104 0.625745 0.000000 0.917755 0.000023 94.730195 -0.000001 -0.629534 0.000001 0.940221 -0.000000 1.709740 -22.307080 -0.000001 0.113772 1.960660 -88.303848 99.096687 0.000016 -0.669733 -0.113771 0.388340 -0.089885 3.359036 97.756768 
0.000000 0.000000 0.000000 -0.000000 1.019410 -17.339598 -0.000000 0.000000 1.456275 0.000001 -56.967439 -0.000002 -0.000001 0.000002 1.471446 0.000002 -1.133463 15.035671 0.625744 0.000000 0.917755 0.000017 96.341266 0.000003 -0.629534 0.000001 0.940221 -0.000000 1.709735 -21.415807 -0.000001 0.113772 1.960660 -88.303834 98.731839 0.000014 -0.669733 -0.113772 0.388339 -0.111128 3.374728 99.244657 
0.000000 0.000000 0.000000 -0.000000 1.019410 -16.617777 -0.000000 0.000000 1.456275 0.000001 -56.468203 0.000001 -0.000001 0.000002 1.471446 0.000001 -1.133459 14.408515 0.625745 0.000000 0.917755 0.000006 97.951627 -0.000007 -0.629534 0.000001 0.940221 0.000001 1.709735 -20.524917 -0.000001 0.113772 1.960660 -88.303862 98.367155 -0.000019 -0.669734 -0.113771 0.388340 -0.132766 3.389861 100.731903 
0.000000 0.000000 0.000000 -0.000000 1.019410 -15.895681 -0.000000 0.000000 1.456275 0.000001 -55.968776 0.000001 -0.000000 0.000002 1.471446 -0.000001 -1.133457 13.781114 0.625744 0.000000 0.917755 0.000018 99.562616 -0.000008 -0.629534 0.000001 0.940221 -0.000000 1.709736 -19.633693 -0.000001 0.113773 1.960660 -88.303834 98.002320 0.000027 -0.669733 -0.113771 0.388339 -0.154793 3.404430 102.219751 
0.000000 0.000000 0.000000 -0.000000 1.019410 -15.172545 -0.000000 0.000000 1.456275 -0.000001 -55.468625 -0.000003 -0.000000 0.000002 1.471446 0.000000 -1.133457 13.152812 0.625744 0.000000 0.917755 0.000009 101.175913 -0.000003 -0.629534 0.000001 0.940221 -0.000001 1.709737 -18.741182 -0.000001 0.113772 1.960661 -88.303882 97.636974 0.000037 -0.669733 -0.113771 0.388339 -0.177230 3.418443 103.709777 
0.000000 0.000000 0.000000 -0.000000 1.019410 -14.448203 -0.000000 -0.000000 1.456275 0.000002 -54.967648 -0.000000 -0.000000 0.000002 1.471446 0.000001 -1.133462 12.523466 0.625744 0.000000 0.917755 0.000009 102.791902 -0.000002 -0.629534 0.000001 0.940221 -0.000000 1.709738 -17.847185 -0.000001 0.113772 1.960661 -88.303821 97.271012 0.000004 -0.669733 -0.113771 0.388340 -0.200067 3.431894 105.202310 
0.000000 0.000000 0.000000 -0.000000 1.019410 -13.724907 -0.000000 0.000000 1.456275 -0.000001 -54.467388 0.000000 -0.000000 0.000002 1.471446 0.000002 -1.133464 11.895024 0.625744 0.000000 0.917755 0.000007 104.405554 -0.000002 -0.629534 0.000001 0.940221 0.000000 1.709733 -16.954476 -0.000001 0.113772 1.960661 -88.303841 96.905576 -0.000021 -0.669733 -0.113771 0.388339 -0.223212 3.444721 106.692712 
0.000000 0.000000 0.000000 -0.000000 1.019410 -13.005493 -0.000000 0.000000 1.456275 -0.000001 -53.969815 -0.000001 -0.000000 0.000002 1.471446 0.000000 -1.133461 11.269950 0.625745 0.000000 0.917755 0.000006 106.010553 -0.000003 -0.629534 0.000001 0.940220 0.000000 1.709737 -16.066562 -0.000001 0.113772 1.960661 -88.303868 96.542101 -0.000026 -0.669733 -0.113771 0.388340 -0.246555 3.456890 108.175150 
0.000000 0.000000 0.000000 -0.000000 1.019410 -12.290558 -0.000000 0.000000 1.456275 -0.000002 -53.475337 -0.000000 -0.000000 0.000002 1.471446 0.000000 -1.133457 10.648780 0.625745 0.000000 0.917755 0.000006 107.605553 -0.000004 -0.629534 0.000001 0.940221 0.000000 1.709736 -15.184175 -0.000000 0.113772 1.960661 -88.303882 96.180893 0.000015 -0.669733 -0.113771 0.388340 -0.270051 3.468378 109.648380 
0.000000 0.000000 0.000000 -0.000000 1.019410 -11.571743 -0.000000 -0.000000 1.456275 0.000001 -52.978178 -0.000000 -0.000000 0.000002 1.471446 0.000000 -1.133460 10.024231 0.625744 0.000000 0.917755 0.000006 109.209213 -0.000002 -0.629534 0.000001 0.940221 0.000000 1.709733 -14.297001 -0.000001 0.113772 1.960661 -88.303848 95.817725 0.000045 -0.669733 -0.113772 0.388340 -0.293974 3.479306 111.129616 
0.000000 0.000000 0.000000 -0.000000 1.019410 -10.838438 -0.000000 0.000000 1.456275 0.000000 -52.470992 -0.000000 -0.000000 0.000002 1.471446 -0.000000 -1.133461 9.387094 0.625745 0.000000 0.917755 0.000004 110.845193 -0.000002 -0.629533 0.000001 0.940220 0.000000 1.709734 -13.391938 -0.000001 0.113772 1.960661 -88.303834 95.447235 0.000006 -0.669733 -0.113771 0.388340 -0.318660 3.489828 112.640734 
0.000000 0.000000 0.000000 -0.000000 1.019410 -10.088400 -0.000000 -0.000000 1.456275 0.000000 -51.952242 0.000001 -0.000000 0.000002 1.471446 -0.000001 -1.133460 8.735419 0.625745 0.000000 0.917755 0.000006 112.518515 -0.000003 -0.629533 0.000001 0.940221 0.000000 1.709737 -12.466231 -0.000001 0.113772 1.960661 -88.303834 95.068290 0.000008 -0.669733 -0.113771 0.388340 -0.344187 3.499911 114.186351 
0.000000 0.000000 0.000000 -0.000000 1.019410 -9.352854 -0.000000 0.000000 1.456275 0.000001 -51.443510 -0.000000 -0.000000 0.000002 1.471445 0.000001 -1.133458 8.096334 0.625745 0.000000 0.917755 0.000005 114.159502 -0.000002 -0.629533 0.000001 0.940221 0.000001 1.709735 -11.558401 -0.000000 0.113772 1.960661 -88.303821 94.696666 0.000023 -0.669734 -0.113771 0.388340 -0.369477 3.509126 115.702120 
0.000000 0.000000 0.000000 -0.000000 1.019410 -8.671384 -0.000000 -0.000000 1.456275 0.000000 -50.972179 0.000001 -0.000000 0.000002 1.471446 0.000000 -1.133463 7.504234 0.625745 0.000000 0.917756 0.000004 115.679840 -0.000003 -0.629534 0.000001 0.940221 -0.000000 1.709735 -10.717321 -0.000001 0.113772 1.960660 -88.303848 94.352363 0.000023 -0.669733 -0.113771 0.388341 -0.393120 3.517067 117.106489 
0.000000 0.000000 0.000000 -0.000000 1.019410 -8.071489 -0.000000 -0.000000 1.456275 -0.000000 -50.557265 0.000000 -0.000000 0.000002 1.471446 0.000000 -1.133458 6.983014 0.625744 0.000000 0.917755 0.000005 117.018189 -0.000002 -0.629533 0.000001 0.940221 -0.000000 1.709738 -9.976917 -0.000001 0.113772 1.960660 -88.303841 94.049273 0.000022 -0.669733 -0.113771 0.388339 -0.414089 3.523573 118.342754 
0.000000 0.000000 0.000000 -0.000000 1.019410 -7.532311 -0.000000 0.000000 1.456275 0.000000 -50.184357 -0.000001 -0.000000 0.000002 1.471446 -0.000000 -1.133458 6.514544 0.625745 0.000000 0.917755 0.000004 118.221067 -0.000002 -0.629533 0.000001 0.940221 -0.000000 1.709736 -9.311453 -0.000001 0.113772 1.960660 -88.303855 93.776865 0.000062 -0.669733 -0.113771 0.388340 -0.433050 3.529036 119.453902 
0.000000 0.000000 0.000000 -0.000000 1.019410 -7.020908 -0.000000 0.000000 1.456275 -0.000001 -49.830646 0.000000 -0.000000 0.000002 1.471446 0.000000 -1.133458 6.070208 0.625745 0.000000 0.917755 0.000005 119.361995 -0.000002 -0.629533 0.000001 0.940221 -0.000000 1.709737 -8.680270 -0.000000 0.113772 1.960660 -88.303821 93.518492 0.000069 -0.669733 -0.113771 0.388340 -0.451130 3.533878 120.507814 
0.000000 0.000000 0.000000 -0.000000 1.019410 -6.504331 -0.000000 0.000000 1.456275 -0.000000 -49.473362 -0.000000 -0.000000 0.000002 1.471446 -0.000000 -1.133459 5.621376 0.625745 0.000000 0.917755 0.000004 120.514481 -0.000002 -0.629534 0.000001 0.940221 0.000000 1.709735 -8.042699 -0.000001 0.113772 1.960660 -88.303862 93.257497 0.000014 -0.669733 -0.113771 0.388341 -0.469480 3.538434 121.572409 
